# xmcd CD database file
#
# Track frame offsets:
#	150
#	17437
#	47389
#	67754
#	91430
#	105594
#	120713
#	160201
#
# Disc length: 2370 seconds
#
# Revision: 3
# Processed by: cddbd v1.5.2PL0 Copyright (c) Steve Scherf et al.
# Submitted via: CDex 1.50
#
DISCID=54094008
DTITLE=Delbert McClinton - Live CD02
DYEAR=2003
DGENRE=Blues
TTITLE0=Why Me?
TTITLE1=Rebecca, Rebecca
TTITLE2=Going Back To Louisiana
TTITLE3=When Rita Leaves
TTITLE4=Livin' It Down
TTITLE5=Giving It Up For Your Love
TTITLE6=B-Movie Boxcar Blues
TTITLE7=Little Fine Healthy Thing
EXTD=YEAR: 2003
EXTT0=
EXTT1=
EXTT2=
EXTT3=
EXTT4=
EXTT5=
EXTT6=
EXTT7=
PLAYORDER=
